{"title":"Ocean's Twelve (2004) 720p Blu-Ray x264 [Dual-Audio] [English 5.","uid":12076765,"size":1188290742,"categoryP":"video","categoryS":"movies","magnet":"?xt=urn:btih:1c91a59eba8cd6cb735e719b9bf14087dd37c2e0&amp;dn=Ocean%27s+Twelve+%282004%29+720p+Blu-Ray+x264+%5BDual-Audio%5D+%5BEnglish+5.&amp;tr=udp%3A%2F%2Ftracker.openbittorrent.com%3A80&amp;tr=udp%3A%2F%2Fopen.demonii.com%3A1337&amp;tr=udp%3A%2F%2Ftracker.coppersurfer.tk%3A6969&amp;tr=udp%3A%2F%2Fexodus.desync.com%3A6969","seeders":5,"leechers":4,"uploader":"praneet_gupta777","files":2,"time":1435659335,"description":"[center]\n[b][size=7]Ocean's Twelve (2004) 720p Blu-Ray x264 [Dual-Audio] [English 5.1 + Hindi 2.0] Esubs [PKG][/size][/b]\n\n\n\n\n\n[img]http://extraimago.com/images/2015/06/29/Oceans-12-Front-Cover-28407.jpg[/img]\n\n\n[img]http://extraimago.com/images/2015/06/29/Untitlede11d7.png[/img]\n\n\n\n[img]http://img9.uploadhouse.com/fileuploads/15981/15981250a2a3770f9f004bcdf00afac92833ebdb.png[/img]\n\n\n[quote]\n\n\nGeneral\nUnique ID                   : 219133612323287328418758323189635930641 (0xA4DB993C81D6819BBC6EBFEC1C78DA11)\nComplete name               : G:Ocean's Twelve (2004) 720p Blu-Ray x264 [Dual-Audio] [English 5.1 + Hindi 2.0] Esubs [PKG]Ocean's Twelve (2004) 720p Blu-Ray x264 [Dual-Audio] [English 5.1 + Hindi 2.0] Esubs [PKG].mkv\nFormat                      : Matroska\nFormat version              : Version 2\nFile size                   : 1.10 GiB\nDuration                    : 2h 5mn\nOverall bit rate            : 1 260 Kbps\nMovie name                  : Ocean's Twelve (2004) 720p Blu-Ray x264 [Dual-Audio] [English 5.1 + Hindi 2.0] Esubs [PKG]\nEncoded date                : UTC 2015-06-29 13:39:44\nWriting application         : mkvmerge v7.7.0 ('Six Voices') 32bit built on Feb 28 2015 23:23:00\nWriting library             : libebml v1.3.1 + libmatroska v1.4.2\nNUMBER_OF_FRAMES            : 1438\nNUMBER_OF_BYTES             : 59134\n\nVideo\nID                          : 1\nFormat                      : AVC\nFormat/Info                 : Advanced Video Codec\nFormat profile              : &lt;a class=&quot;__cf_email__&quot; href=&quot;/cdn-cgi/l/email-protection&quot; data-cfemail=&quot;bff7d6d8d7fff38c918e&quot;&gt;[email&amp;#160;protected]&lt;/a&gt;&lt;script data-cfhash='f9e31' type=&quot;text/javascript&quot;&gt;\n/* &lt;![CDATA[ */!function(){try{var t=&quot;currentScript&quot;in document?document.currentScript:function(){for(var t=document.getElementsByTagName(&quot;script&quot;),e=t.length;e--;)if(t[e].getAttribute(&quot;data-cfhash&quot;))return t[e]}();if(t&amp;&amp;t.previousSibling){var e,r,n,i,c=t.previousSibling,a=c.getAttribute(&quot;data-cfemail&quot;);if(a){for(e=&quot;&quot;,r=parseInt(a.substr(0,2),16),n=2;a.length-n;n+=2)i=parseInt(a.substr(n,2),16)^r,e+=String.fromCharCode(i);e=document.createTextNode(e),c.parentNode.replaceChild(e,c)}t.parentNode.removeChild(t);}}catch(u){}}()/* ]]&gt; */&lt;/script&gt;\nFormat settings, CABAC      : Yes\nFormat settings, ReFrames   : 4 frames\nCodec ID                    : V_MPEG4/ISO/AVC\nDuration                    : 2h 5mn\nBit rate                    : 937 Kbps\nWidth                       : 1 280 pixels\nHeight                      : 534 pixels\nDisplay aspect ratio        : 2.40:1\nFrame rate mode             : Constant\nFrame rate                  : 23.976 fps\nColor space                 : YUV\nChroma subsampling          : 4:2:0\nBit depth                   : 8 bits\nScan type                   : Progressive\nBits/(Pixel*Frame)          : 0.057\nStream size                 : 820 MiB (73%)\nTitle                       : [PKG]\nWriting library             : x264 core 125 r2208 d9d2288\nEncoding settings           : cabac=1 / ref=3 / deblock=1:-1:-1 / analyse=0x3:0x113 / me=umh / subme=9 / psy=1 / psy_rd=0.00:0.00 / mixed_ref=1 / me_range=32 / chroma_me=1 / trellis=2 / 8x8dct=1 / cqm=0 / deadzone=21,11 / fast_pskip=0 / chroma_qp_offset=0 / threads=12 / lookahead_threads=2 / sliced_threads=0 / nr=0 / decimate=1 / interlaced=0 / bluray_compat=0 / constrained_intra=0 / bframes=3 / b_pyramid=2 / b_adapt=2 / b_bias=0 / direct=3 / weightb=1 / open_gop=0 / weightp=2 / keyint=250 / keyint_min=25 / scenecut=40 / intra_refresh=0 / rc_lookahead=60 / rc=2pass / mbtree=1 / bitrate=937 / ratetol=1.0 / qcomp=0.60 / qpmin=10 / qpmax=51 / qpstep=4 / cplxblur=20.0 / qblur=0.5 / ip_ratio=1.40 / aq=1:1.00\nDefault                     : Yes\nForced                      : No\n\nAudio #1\nID                          : 2\nFormat                      : AC-3\nFormat/Info                 : Audio Coding 3\nMode extension              : CM (complete main)\nFormat settings, Endianness : Big\nCodec ID                    : A_AC3\nDuration                    : 2h 5mn\nBit rate mode               : Constant\nBit rate                    : 128 Kbps\nChannel(s)                  : 2 channels\nChannel positions           : Front: L R\nSampling rate               : 48.0 KHz\nBit depth                   : 16 bits\nCompression mode            : Lossy\nStream size                 : 115 MiB (10%)\nTitle                       : [PKG]\nLanguage                    : Hindi\nDefault                     : Yes\n\n\nAudio #2\nID                          : 3\nFormat                      : AC-3\nFormat/Info                 : Audio Coding 3\nMode extension              : CM (complete main)\nFormat settings, Endianness : Big\nCodec ID                    : A_AC3\nDuration                    : 2h 5mn\nBit rate mode               : Constant\nBit rate                    : 192 Kbps\nChannel(s)                  : 6 channels\nChannel positions           : Front: L C R, Side: L R, LFE\nSampling rate               : 48.0 KHz\nBit depth                   : 16 bits\nCompression mode            : Lossy\nStream size                 : 172 MiB (15%)\nTitle                       : [PKG]\nLanguage                    : English\nDefault                     : No\n\n\nText\nID                          : 4\nFormat                      : UTF-8\nCodec ID                    : S_TEXT/UTF8\nCodec ID/Info               : UTF-8 Plain Text\nTitle                       : [PKG]\nLanguage                    : English\nDefault                     : Yes\n\n\nMenu\n00:00:00.000                : en:00:00:00.000\n00:03:07.229                : en:00:03:07.229\n00:08:09.823                : en:00:08:09.823\n00:14:52.058                : en:00:14:52.058\n00:16:39.999                : en:00:16:39.999\n00:22:04.490                : en:00:22:04.490\n00:24:09.615                : en:00:24:09.615\n00:27:16.134                : en:00:27:16.134\n00:30:58.523                : en:00:30:58.523\n00:36:16.007                : en:00:36:16.007\n00:39:37.709                : en:00:39:37.709\n00:41:31.989                : en:00:41:31.989\n00:45:17.548                : en:00:45:17.548\n00:51:16.407                : en:00:51:16.407\n00:56:44.234                : en:00:56:44.234\n00:58:47.691                : en:00:58:47.691\n01:02:00.216                : en:01:02:00.216\n01:03:33.309                : en:01:03:33.309\n01:05:53.449                : en:01:05:53.449\n01:09:49.018                : en:01:09:49.018\n01:13:10.553                : en:01:13:10.553\n01:15:32.027                : en:01:15:32.027\n01:17:25.140                : en:01:17:25.140\n01:20:23.819                : en:01:20:23.819\n01:22:50.966                : en:01:22:50.966\n01:26:02.324                : en:01:26:02.324\n01:30:49.444                : en:01:30:49.444\n01:35:19.547                : en:01:35:19.547\n01:38:13.721                : en:01:38:13.721\n01:41:21.409                : en:01:41:21.409\n01:44:19.753                : en:01:44:19.753\n01:46:35.389                : en:01:46:35.389\n01:48:38.512                : en:01:48:38.512\n01:53:47.320                : en:01:53:47.320\n01:57:24.537                : en:01:57:24.537\n01:58:47.620                : en:01:58:47.620\n\n\n[color=navy][size=6][b]SAMPLE WITHIN TORRENT[/b][/size][/color]\n\n\n\n\n\n[img]http://icons.iconarchive.com/icons/tribalmarkings/colorflow/256/screenshots-icon.png[/img]\n\n\n\n[img]http://extraimago.com/images/2015/06/29/vlcsnap-2015-06-29-19h17m32s8.png[/img]\n\n[img]http://extraimago.com/images/2015/06/29/vlcsnap-2015-06-29-19h19m37s248.png[/img]\n\n[img]http://extraimago.com/images/2015/06/29/vlcsnap-2015-06-29-19h21m57s107.png[/img]\n\n[img]http://extraimago.com/images/2015/06/29/vlcsnap-2015-06-29-19h24m09s154.png[/img]\n\n[img]http://extraimago.com/images/2015/06/29/vlcsnap-2015-06-29-19h29m07s63.png[/img]\n\n[img]http://extraimago.com/images/2015/06/29/vlcsnap-2015-06-29-19h22m06s211.png[/img]\n\n[img]http://extraimago.com/images/2015/06/29/OceansTwelve2004720pBlu-Rayx264Dual-AudioEnglish5.1Hindi2.0EsubsPKG.mkv_thumbs_2015.06.29_19.15.28.jpg[/img]\n\n\n\n[/center]","torrent":{"xt":"urn:btih:1c91a59eba8cd6cb735e719b9bf14087dd37c2e0","amp;dn":"Ocean%27s+Twelve+%282004%29+720p+Blu-Ray+x264+%5BDual-Audio%5D+%5BEnglish+5.","amp;tr":["udp%3A%2F%2Ftracker.openbittorrent.com%3A80","udp%3A%2F%2Fopen.demonii.com%3A1337","udp%3A%2F%2Ftracker.coppersurfer.tk%3A6969","udp%3A%2F%2Fexodus.desync.com%3A6969"],"infoHash":"1c91a59eba8cd6cb735e719b9bf14087dd37c2e0","infoHashBuffer":{"type":"Buffer","data":[28,145,165,158,186,140,214,203,115,94,113,155,155,241,64,135,221,55,194,224]},"announce":[],"urlList":[]}}